name rise30.8019peak61.5557fall86.2505.mot
datacolumns 19
datarows 27
range 21.74325200000000 21.78658200000000
endheader
time	ground_force1_vx	ground_force1_vy	ground_force1_vz	ground_force1_px	ground_force1_py	ground_force1_pz	ground_force2_vx	ground_force2_vy	ground_force2_vz	ground_force2_px	ground_force2_py	ground_force2_pz	ground_torque1_x	ground_torque1_y	ground_torque1_z	ground_torque2_x	ground_torque2_y	ground_torque2_z	
21.74325200000000	-45.98261200000000	774.35586599999999	45.88652100000000	0.01244600000000	0.00000000000000	0.09756500000000	0.00000000000000	0.00000000000000	0.00000000000000	0.00000000000000	0.00000000000000	0.00000000000000	0.00000000000000	10.91433700000000	0.00000000000000	0.00000000000000	0.00000000000000	0.00000000000000	
21.74491700000000	-46.35055300000000	773.44735700000001	45.83499300000000	0.01160000000000	0.00000000000000	0.09750100000000	0.00000000000000	0.00000000000000	0.00000000000000	0.00000000000000	0.00000000000000	0.00000000000000	0.00000000000000	10.86029700000000	0.00000000000000	0.00000000000000	0.00000000000000	0.00000000000000	
21.74658800000000	-46.73938200000000	772.48927000000003	45.77271800000000	0.01075200000000	0.00000000000000	0.09743300000000	0.00000000000000	0.00000000000000	0.00000000000000	0.00000000000000	0.00000000000000	0.00000000000000	0.00000000000000	10.81053100000000	0.00000000000000	0.00000000000000	0.00000000000000	0.00000000000000	
21.74825500000000	-47.14959400000000	771.48098700000003	45.69947400000000	0.00990200000000	0.00000000000000	0.09736200000000	0.00000000000000	0.00000000000000	0.00000000000000	0.00000000000000	0.00000000000000	0.00000000000000	0.00000000000000	10.76521800000000	0.00000000000000	0.00000000000000	0.00000000000000	0.00000000000000	
21.74992200000000	-47.58164200000000	770.42181500000004	45.61504200000000	0.00905100000000	0.00000000000000	0.09728900000000	0.00000000000000	0.00000000000000	0.00000000000000	0.00000000000000	0.00000000000000	0.00000000000000	0.00000000000000	10.72452900000000	0.00000000000000	0.00000000000000	0.00000000000000	0.00000000000000	
21.75158300000000	-48.03592800000000	769.31098299999996	45.51920600000000	0.00819800000000	0.00000000000000	0.09721300000000	0.00000000000000	0.00000000000000	0.00000000000000	0.00000000000000	0.00000000000000	0.00000000000000	0.00000000000000	10.68862300000000	0.00000000000000	0.00000000000000	0.00000000000000	0.00000000000000	
21.75325000000000	-48.51280500000000	768.14763100000005	45.41175600000000	0.00734400000000	0.00000000000000	0.09713400000000	0.00000000000000	0.00000000000000	0.00000000000000	0.00000000000000	0.00000000000000	0.00000000000000	0.00000000000000	10.65765300000000	0.00000000000000	0.00000000000000	0.00000000000000	0.00000000000000	
21.75492500000000	-49.01257400000000	766.93080999999995	45.29248700000000	0.00649000000000	0.00000000000000	0.09705200000000	0.00000000000000	0.00000000000000	0.00000000000000	0.00000000000000	0.00000000000000	0.00000000000000	0.00000000000000	10.63176000000000	0.00000000000000	0.00000000000000	0.00000000000000	0.00000000000000	
21.75658600000000	-49.53547800000000	765.65947800000004	45.16119700000000	0.00563400000000	0.00000000000000	0.09696700000000	0.00000000000000	0.00000000000000	0.00000000000000	0.00000000000000	0.00000000000000	0.00000000000000	0.00000000000000	10.61107500000000	0.00000000000000	0.00000000000000	0.00000000000000	0.00000000000000	
21.75825100000000	-50.08170400000000	764.33249100000000	45.01769200000000	0.00477800000000	0.00000000000000	0.09687900000000	0.00000000000000	0.00000000000000	0.00000000000000	0.00000000000000	0.00000000000000	0.00000000000000	0.00000000000000	10.59571800000000	0.00000000000000	0.00000000000000	0.00000000000000	0.00000000000000	
21.75991700000000	-50.65137500000000	762.94859899999994	44.86178400000000	0.00392100000000	0.00000000000000	0.09678800000000	0.00000000000000	0.00000000000000	0.00000000000000	0.00000000000000	0.00000000000000	0.00000000000000	0.00000000000000	10.58579700000000	0.00000000000000	0.00000000000000	0.00000000000000	0.00000000000000	
21.76158700000000	-51.24455100000000	761.50644899999998	44.69329100000000	0.00306400000000	0.00000000000000	0.09669500000000	0.00000000000000	0.00000000000000	0.00000000000000	0.00000000000000	0.00000000000000	0.00000000000000	0.00000000000000	10.58140600000000	0.00000000000000	0.00000000000000	0.00000000000000	0.00000000000000	
21.76325300000000	-51.86122700000000	760.00457500000005	44.51203900000000	0.00220700000000	0.00000000000000	0.09659800000000	0.00000000000000	0.00000000000000	0.00000000000000	0.00000000000000	0.00000000000000	0.00000000000000	0.00000000000000	10.58262800000000	0.00000000000000	0.00000000000000	0.00000000000000	0.00000000000000	
21.76492500000000	-52.50132900000000	758.44139700000005	44.31786200000000	0.00135000000000	0.00000000000000	0.09649900000000	-1.44609800000000	3.53664900000000	0.77548700000000	0.00000000000000	0.00000000000000	0.00000000000000	0.00000000000000	10.58953100000000	0.00000000000000	0.00000000000000	0.10735800000000	0.00000000000000	
21.76658900000000	-53.16471000000000	756.81522299999995	44.11060200000000	0.00049300000000	0.00000000000000	0.09639700000000	-2.34743600000000	6.87311800000000	1.34573900000000	0.00000000000000	0.00000000000000	0.00000000000000	0.00000000000000	10.60216900000000	0.00000000000000	0.00000000000000	0.20139900000000	0.00000000000000	
21.76825000000000	-53.85115300000000	755.12424199999998	43.89011200000000	-0.00036300000000	0.00000000000000	0.09629300000000	-3.37423700000000	10.91148300000000	2.01298200000000	0.00000000000000	0.00000000000000	0.00000000000000	0.00000000000000	10.62058200000000	0.00000000000000	0.00000000000000	0.31403700000000	0.00000000000000	
21.76992400000000	-54.56036400000000	753.36652600000002	43.65625300000000	-0.00121800000000	0.00000000000000	0.09618500000000	-4.49762500000000	15.61055900000000	2.76363300000000	0.00000000000000	0.00000000000000	0.00000000000000	0.00000000000000	10.64479500000000	0.00000000000000	0.00000000000000	0.44373000000000	0.00000000000000	
21.77158300000000	-55.29197300000000	751.54002900000000	43.40889800000000	-0.00207200000000	0.00000000000000	0.09607500000000	-5.68093300000000	20.89828500000000	3.57893600000000	0.00000000000000	0.00000000000000	0.00000000000000	0.00000000000000	10.67481600000000	0.00000000000000	0.00000000000000	0.58804300000000	0.00000000000000	
21.77324900000000	-56.04553300000000	749.64259100000004	43.14793000000000	-0.00292600000000	0.00000000000000	0.09596300000000	-6.88213200000000	26.67712500000000	4.43621600000000	0.26445300000000	0.00000000000000	-0.07244000000000	0.00000000000000	10.71063700000000	0.00000000000000	0.00000000000000	1.41845800000000	0.00000000000000	
21.77491800000000	-56.82051500000000	747.67193299999997	42.87324600000000	-0.00377700000000	0.00000000000000	0.09584800000000	-8.05690800000000	32.83221700000000	5.31058600000000	0.26861600000000	0.00000000000000	-0.07279200000000	0.00000000000000	10.75223600000000	0.00000000000000	0.00000000000000	1.74747400000000	0.00000000000000	
21.77659000000000	-57.61630900000000	745.62566300000003	42.58475200000000	-0.00462800000000	0.00000000000000	0.09573000000000	-9.16203200000000	39.24119100000000	6.17686800000000	0.27235000000000	0.00000000000000	-0.07311000000000	0.00000000000000	10.79957100000000	0.00000000000000	0.00000000000000	2.08751900000000	0.00000000000000	
21.77825500000000	-58.43222500000000	743.50128099999995	42.28237200000000	-0.00547600000000	0.00000000000000	0.09561000000000	-10.15852800000000	45.78424900000000	7.01148300000000	0.27572200000000	0.00000000000000	-0.07340000000000	0.00000000000000	10.85258500000000	0.00000000000000	0.00000000000000	2.43061400000000	0.00000000000000	
21.77991500000000	-59.26748700000000	741.29617800000005	41.96604000000000	-0.00632300000000	0.00000000000000	0.09548700000000	-11.01426500000000	52.35317100000000	7.79405400000000	0.27878200000000	0.00000000000000	-0.07366500000000	0.00000000000000	10.91120300000000	0.00000000000000	0.00000000000000	2.76940300000000	0.00000000000000	
21.78158900000000	-60.12123700000000	739.00764100000004	41.63570800000000	-0.00716800000000	0.00000000000000	0.09536300000000	-11.70569100000000	58.85829000000000	8.50856100000000	0.28157400000000	0.00000000000000	-0.07391000000000	0.00000000000000	10.97533200000000	0.00000000000000	0.00000000000000	3.09760700000000	0.00000000000000	
21.78325400000000	-60.99253100000000	736.63286200000005	41.29133900000000	-0.00801000000000	0.00000000000000	0.09523600000000	-12.21864300000000	65.23295000000000	9.14398000000000	0.28413100000000	0.00000000000000	-0.07413700000000	0.00000000000000	11.04486000000000	0.00000000000000	0.00000000000000	3.41033500000000	0.00000000000000	
21.78491800000000	-61.88034200000000	734.16893800000003	40.93291700000000	-0.00885000000000	0.00000000000000	0.09510700000000	-12.54826400000000	71.43537600000001	9.69441200000000	0.28648300000000	0.00000000000000	-0.07435000000000	0.00000000000000	11.11966100000000	0.00000000000000	0.00000000000000	3.70423000000000	0.00000000000000	
21.78658200000000	-62.78355600000000	731.61288400000001	40.56043800000000	-0.00968700000000	0.00000000000000	0.09497500000000	-12.69817100000000	77.44818900000000	10.15877400000000	0.28865200000000	0.00000000000000	-0.07455000000000	0.00000000000000	11.19958600000000	0.00000000000000	0.00000000000000	3.97746000000000	0.00000000000000	
